<svg width="auto" height="auto" viewBox="0 0 393 27" fill="none" xmlns="http://www.w3.org/2000/svg">
<path d="M23.1 0.799999V26H17.304V5.552L5.928 5.552L5.928 26H0.132001L0.132001 0.799999L23.1 0.799999ZM39.1748 0.799999C41.4068 0.799999 43.3388 1.172 44.9708 1.916C46.6268 2.66 47.8989 3.716 48.7869 5.084C49.6749 6.452 50.1189 8.072 50.1189 9.944C50.1189 11.792 49.6749 13.412 48.7869 14.804C47.8989 16.172 46.6268 17.228 44.9708 17.972C43.3388 18.692 41.4068 19.052 39.1748 19.052H34.0988V26H28.2668V0.799999H39.1748ZM38.8508 14.3C40.6028 14.3 41.9348 13.928 42.8468 13.184C43.7589 12.416 44.2149 11.336 44.2149 9.944C44.2149 8.528 43.7589 7.448 42.8468 6.704C41.9348 5.936 40.6028 5.552 38.8508 5.552H34.0988V14.3H38.8508ZM65.2616 26.432C62.6456 26.432 60.2816 25.868 58.1696 24.74C56.0816 23.612 54.4376 22.064 53.2376 20.096C52.0616 18.104 51.4736 15.872 51.4736 13.4C51.4736 10.928 52.0616 8.708 53.2376 6.74C54.4376 4.748 56.0816 3.188 58.1696 2.06C60.2816 0.932001 62.6456 0.368001 65.2616 0.368001C67.8776 0.368001 70.2296 0.932001 72.3176 2.06C74.4056 3.188 76.0496 4.748 77.2496 6.74C78.4496 8.708 79.0496 10.928 79.0496 13.4C79.0496 15.872 78.4496 18.104 77.2496 20.096C76.0496 22.064 74.4056 23.612 72.3176 24.74C70.2296 25.868 67.8776 26.432 65.2616 26.432ZM65.2616 21.464C66.7496 21.464 68.0936 21.128 69.2936 20.456C70.4936 19.76 71.4296 18.8 72.1016 17.576C72.7976 16.352 73.1456 14.96 73.1456 13.4C73.1456 11.84 72.7976 10.448 72.1016 9.224C71.4296 8 70.4936 7.052 69.2936 6.38C68.0936 5.684 66.7496 5.336 65.2616 5.336C63.7736 5.336 62.4296 5.684 61.2296 6.38C60.0296 7.052 59.0816 8 58.3856 9.224C57.7136 10.448 57.3776 11.84 57.3776 13.4C57.3776 14.96 57.7136 16.352 58.3856 17.576C59.0816 18.8 60.0296 19.76 61.2296 20.456C62.4296 21.128 63.7736 21.464 65.2616 21.464ZM101.974 21.32V26H82.4623V0.799999L101.506 0.799999V5.48H88.2583V10.952H99.9583V15.488H88.2583V21.32H101.974ZM115.361 15.848H111.329V26H105.533V0.799999H111.329V10.988H115.505L122.129 0.799999H128.285L120.041 12.968L128.537 26H121.913L115.361 15.848ZM149.168 5.552H141.104V26H135.344V5.552H127.316V0.799999H149.168V5.552ZM174.862 0.799999V26H169.03V15.668H157.582V26H151.75V0.799999L157.582 0.799999V10.736H169.03V0.799999H174.862ZM197.159 20.6H185.459L183.227 26H177.251L188.483 0.799999L194.243 0.799999L205.511 26H199.391L197.159 20.6ZM195.323 16.172L191.327 6.524L187.331 16.172H195.323ZM226.596 0.799999V26H220.836V19.304H215.508L211.044 26H204.888L210.144 18.404C208.44 17.708 207.132 16.664 206.22 15.272C205.308 13.856 204.852 12.164 204.852 10.196C204.852 8.252 205.296 6.584 206.184 5.192C207.072 3.776 208.332 2.696 209.964 1.952C211.596 1.184 213.516 0.799999 215.724 0.799999H226.596ZM215.868 5.552C214.212 5.552 212.94 5.936 212.052 6.704C211.188 7.472 210.756 8.612 210.756 10.124C210.756 11.588 211.176 12.716 212.016 13.508C212.856 14.3 214.092 14.696 215.724 14.696H220.836V5.552H215.868ZM251.853 0.799999C254.085 0.799999 256.017 1.172 257.649 1.916C259.305 2.66 260.577 3.716 261.465 5.084C262.353 6.452 262.797 8.072 262.797 9.944C262.797 11.792 262.353 13.412 261.465 14.804C260.577 16.172 259.305 17.228 257.649 17.972C256.017 18.692 254.085 19.052 251.853 19.052H246.777V26H240.945V0.799999H251.853ZM251.529 14.3C253.281 14.3 254.613 13.928 255.525 13.184C256.437 12.416 256.893 11.336 256.893 9.944C256.893 8.528 256.437 7.448 255.525 6.704C254.613 5.936 253.281 5.552 251.529 5.552H246.777V14.3H251.529ZM281.363 20.6H269.663L267.431 26H261.455L272.687 0.799999H278.447L289.715 26H283.595L281.363 20.6ZM279.527 16.172L275.531 6.524L271.535 16.172H279.527ZM291.977 0.799999L312.317 0.799999V5.444L297.773 5.444V10.628H304.757C307.805 10.628 310.121 11.264 311.705 12.536C313.313 13.808 314.117 15.644 314.117 18.044C314.117 20.564 313.229 22.52 311.453 23.912C309.677 25.304 307.169 26 303.929 26H291.977V0.799999ZM303.605 21.68C305.093 21.68 306.233 21.392 307.025 20.816C307.817 20.216 308.213 19.352 308.213 18.224C308.213 16.016 306.677 14.912 303.605 14.912H297.773V21.68H303.605ZM329.499 26.432C326.883 26.432 324.519 25.868 322.407 24.74C320.319 23.612 318.675 22.064 317.475 20.096C316.299 18.104 315.711 15.872 315.711 13.4C315.711 10.928 316.299 8.708 317.475 6.74C318.675 4.748 320.319 3.188 322.407 2.06C324.519 0.932001 326.883 0.368001 329.499 0.368001C332.115 0.368001 334.467 0.932001 336.555 2.06C338.643 3.188 340.287 4.748 341.487 6.74C342.687 8.708 343.287 10.928 343.287 13.4C343.287 15.872 342.687 18.104 341.487 20.096C340.287 22.064 338.643 23.612 336.555 24.74C334.467 25.868 332.115 26.432 329.499 26.432ZM329.499 21.464C330.987 21.464 332.331 21.128 333.531 20.456C334.731 19.76 335.667 18.8 336.339 17.576C337.035 16.352 337.383 14.96 337.383 13.4C337.383 11.84 337.035 10.448 336.339 9.224C335.667 8 334.731 7.052 333.531 6.38C332.331 5.684 330.987 5.336 329.499 5.336C328.011 5.336 326.667 5.684 325.467 6.38C324.267 7.052 323.319 8 322.623 9.224C321.951 10.448 321.615 11.84 321.615 13.4C321.615 14.96 321.951 16.352 322.623 17.576C323.319 18.8 324.267 19.76 325.467 20.456C326.667 21.128 328.011 21.464 329.499 21.464ZM365.608 5.552H357.544V26L351.784 26V5.552H343.756V0.799999H365.608V5.552ZM383.988 20.6H372.288L370.056 26H364.08L375.312 0.799999H381.072L392.34 26H386.22L383.988 20.6ZM382.152 16.172L378.156 6.524L374.16 16.172H382.152Z" fill="white" fill-opacity="0.87"/>
</svg>
